<svg xmlns="http://www.w3.org/2000/svg" xmlns:xlink="http://www.w3.org/1999/xlink" width="40" zoomAndPan="magnify" viewBox="0 0 30 30.000001" height="40" preserveAspectRatio="xMidYMid meet" version="1.0"><defs><clipPath id="883155ec85"><path d="M 0.484375 0 L 29.515625 0 L 29.515625 29.03125 L 0.484375 29.03125 Z M 0.484375 0 " clip-rule="nonzero"/></clipPath><clipPath id="6da276dfbc"><path d="M 13 2.902344 L 25 2.902344 L 25 15 L 13 15 Z M 13 2.902344 " clip-rule="nonzero"/></clipPath><clipPath id="c27da3b92a"><path d="M 0.484375 14 L 29.515625 14 L 29.515625 26.128906 L 0.484375 26.128906 Z M 0.484375 14 " clip-rule="nonzero"/></clipPath></defs><g clip-path="url(#883155ec85)"><path fill="#ffffff" d="M 0.484375 0 L 29.515625 0 L 29.515625 29.03125 L 0.484375 29.03125 Z M 0.484375 0 " fill-opacity="1" fill-rule="nonzero"/><path fill="#ffffff" d="M 0.484375 0 L 29.515625 0 L 29.515625 29.03125 L 0.484375 29.03125 Z M 0.484375 0 " fill-opacity="1" fill-rule="nonzero"/></g><g clip-path="url(#6da276dfbc)"><path fill="#000000" d="M 19.152344 14.324219 C 22.316406 14.324219 24.894531 11.761719 24.894531 8.613281 C 24.894531 5.464844 22.316406 2.902344 19.152344 2.902344 C 15.984375 2.902344 13.410156 5.464844 13.410156 8.613281 C 13.410156 11.761719 15.984375 14.324219 19.152344 14.324219 Z M 14.367188 8.613281 C 14.367188 5.988281 16.511719 3.851562 19.152344 3.851562 C 21.792969 3.851562 23.9375 5.988281 23.9375 8.613281 C 23.9375 11.238281 21.792969 13.375 19.152344 13.375 C 16.511719 13.375 14.367188 11.238281 14.367188 8.613281 Z M 14.367188 8.613281 " fill-opacity="1" fill-rule="nonzero"/></g><path fill="#000000" d="M 17.75 11.230469 C 17.996094 11.46875 18.328125 11.640625 18.691406 11.714844 L 18.6875 12.21875 C 18.683594 12.472656 18.890625 12.683594 19.148438 12.683594 L 19.152344 12.683594 C 19.40625 12.683594 19.613281 12.476562 19.617188 12.226562 L 19.621094 11.710938 C 19.980469 11.636719 20.3125 11.464844 20.558594 11.226562 C 20.84375 10.945312 21 10.589844 21 10.21875 L 21 10.015625 C 21 9.523438 20.722656 9.054688 20.257812 8.769531 L 18.601562 7.75 C 18.40625 7.628906 18.292969 7.460938 18.292969 7.289062 L 18.292969 6.96875 C 18.292969 6.816406 18.382812 6.664062 18.539062 6.550781 C 18.707031 6.425781 18.9375 6.355469 19.183594 6.355469 C 19.429688 6.355469 19.660156 6.425781 19.828125 6.550781 C 19.984375 6.664062 20.074219 6.816406 20.074219 6.96875 L 20.074219 7.332031 C 20.074219 7.585938 20.28125 7.792969 20.539062 7.792969 C 20.792969 7.792969 21 7.585938 21 7.332031 L 21 6.96875 C 21 6.265625 20.441406 5.65625 19.648438 5.480469 L 19.648438 5.003906 C 19.648438 4.75 19.441406 4.542969 19.183594 4.542969 C 18.925781 4.542969 18.71875 4.75 18.71875 5.003906 L 18.71875 5.480469 C 17.925781 5.65625 17.367188 6.265625 17.367188 6.96875 L 17.367188 7.289062 C 17.367188 7.78125 17.644531 8.246094 18.109375 8.535156 L 19.765625 9.554688 C 19.960938 9.675781 20.074219 9.839844 20.074219 10.015625 L 20.074219 10.21875 C 20.074219 10.371094 19.984375 10.523438 19.828125 10.636719 C 19.660156 10.765625 19.429688 10.832031 19.183594 10.832031 L 19.121094 10.832031 C 18.875 10.832031 18.644531 10.765625 18.476562 10.636719 C 18.316406 10.523438 18.230469 10.371094 18.230469 10.21875 L 18.230469 10.019531 C 18.230469 9.765625 18.023438 9.558594 17.765625 9.558594 C 17.511719 9.558594 17.300781 9.765625 17.300781 10.019531 L 17.300781 10.21875 C 17.300781 10.589844 17.460938 10.949219 17.75 11.230469 Z M 17.75 11.230469 " fill-opacity="1" fill-rule="nonzero"/><g clip-path="url(#c27da3b92a)"><path fill="#000000" d="M 28.835938 15.695312 C 28.1875 14.980469 27.15625 14.910156 26.425781 15.527344 L 22.164062 18.960938 C 22.164062 18.917969 22.164062 18.875 22.164062 18.832031 C 22.148438 17.8125 21.339844 16.976562 20.363281 16.976562 L 15.628906 16.976562 C 15.355469 16.976562 15.097656 16.820312 14.941406 16.558594 C 14.90625 16.503906 14.859375 16.457031 14.808594 16.414062 C 12.867188 14.894531 10.261719 14.695312 8.03125 15.679688 L 7.207031 16.042969 L 5.550781 16.042969 L 5.550781 15.292969 C 5.550781 15.023438 5.332031 14.804688 5.058594 14.804688 L 0.976562 14.804688 C 0.707031 14.804688 0.488281 15.023438 0.488281 15.292969 L 0.488281 24.335938 C 0.488281 24.605469 0.707031 24.824219 0.976562 24.824219 L 5.058594 24.824219 C 5.332031 24.824219 5.550781 24.605469 5.550781 24.335938 L 5.550781 23.558594 L 7.238281 23.558594 L 13.066406 25.398438 C 14.386719 25.886719 15.496094 26.128906 16.605469 26.128906 C 17.492188 26.128906 18.382812 25.972656 19.378906 25.660156 C 19.472656 25.632812 19.566406 25.601562 19.660156 25.570312 C 19.859375 25.492188 20.058594 25.402344 20.246094 25.296875 C 20.402344 25.210938 20.550781 25.109375 20.6875 24.996094 L 28.835938 18.386719 C 28.863281 18.363281 28.886719 18.339844 28.90625 18.3125 C 29.511719 17.558594 29.480469 16.410156 28.835938 15.695312 Z M 4.570312 23.847656 L 1.46875 23.847656 L 1.46875 15.78125 L 4.570312 15.78125 Z M 28.167969 17.664062 L 20.570312 23.832031 C 19.90625 24.367188 19.128906 24.75 18.296875 24.945312 C 16.644531 25.328125 15.28125 25.175781 13.398438 24.480469 C 13.390625 24.476562 13.382812 24.472656 13.375 24.472656 L 7.460938 22.605469 C 7.414062 22.589844 7.363281 22.582031 7.3125 22.582031 L 5.550781 22.582031 L 5.550781 17.023438 L 7.3125 17.023438 C 7.382812 17.023438 7.449219 17.007812 7.511719 16.980469 L 8.433594 16.574219 C 10.3125 15.742188 12.445312 15.960938 14.15625 17.152344 C 14.5 17.660156 15.042969 17.957031 15.628906 17.957031 L 20.363281 17.957031 C 20.808594 17.957031 21.171875 18.355469 21.183594 18.851562 C 21.1875 19.121094 21.085938 19.378906 20.910156 19.558594 C 20.824219 19.648438 20.722656 19.710938 20.613281 19.746094 C 20.476562 19.769531 20.332031 19.78125 20.191406 19.78125 L 14.921875 19.78125 C 14.652344 19.78125 14.425781 19.992188 14.425781 20.261719 C 14.421875 20.535156 14.640625 20.757812 14.914062 20.757812 L 20.40625 20.757812 C 20.554688 20.757812 20.699219 20.738281 20.839844 20.699219 C 21.453125 20.589844 22.03125 20.324219 22.539062 19.914062 L 27.050781 16.285156 C 27.054688 16.28125 27.058594 16.277344 27.0625 16.273438 C 27.382812 16 27.820312 16.035156 28.105469 16.351562 C 28.421875 16.699219 28.445312 17.28125 28.167969 17.664062 Z M 28.167969 17.664062 " fill-opacity="1" fill-rule="nonzero"/></g></svg>