<svg xmlns="http://www.w3.org/2000/svg" xmlns:xlink="http://www.w3.org/1999/xlink" width="50" zoomAndPan="magnify" viewBox="0 0 37.5 37.499999" height="50" preserveAspectRatio="xMidYMid meet" version="1.0"><defs><clipPath id="222dcee517"><path d="M 0 0 L 37.007812 0 L 37.007812 37.007812 L 0 37.007812 Z M 0 0 " clip-rule="nonzero"/></clipPath><clipPath id="bba9b600df"><path d="M 4.578125 14 L 32.703125 14 L 32.703125 37.007812 L 4.578125 37.007812 Z M 4.578125 14 " clip-rule="nonzero"/></clipPath></defs><g clip-path="url(#222dcee517)"><path fill="#ffffff" d="M 0 0 L 37.007812 0 L 37.007812 37.007812 L 0 37.007812 Z M 0 0 " fill-opacity="1" fill-rule="nonzero"/><path fill="#ffffff" d="M 0 0 L 37.007812 0 L 37.007812 37.007812 L 0 37.007812 Z M 0 0 " fill-opacity="1" fill-rule="nonzero"/></g><g clip-path="url(#bba9b600df)"><path fill="#231f20" d="M 27.554688 37.007812 L 17.066406 37.007812 C 16.570312 37.007812 16.148438 36.65625 16.0625 36.175781 C 15.695312 34.074219 15.234375 32.5625 14.863281 32.222656 C 14.242188 31.648438 12.78125 31.804688 11.605469 31.925781 C 11.210938 31.964844 10.839844 32.003906 10.503906 32.019531 C 7.621094 32.164062 7.453125 30.328125 7.289062 28.546875 C 7.226562 27.871094 7.160156 27.167969 6.964844 26.5 C 6.699219 25.605469 6.207031 25.285156 5.734375 24.976562 C 5.253906 24.664062 4.707031 24.304688 4.753906 23.40625 C 4.777344 22.96875 5.125 22.589844 5.5625 22.109375 C 6.238281 21.367188 7.167969 20.351562 7.171875 18.75 C 7.171875 18.332031 7.128906 17.777344 7.085938 17.238281 C 7.050781 16.804688 7.019531 16.394531 7.007812 16.042969 C 7 15.773438 7.003906 15.503906 7.019531 15.234375 C 7.03125 15.03125 7.207031 14.878906 7.410156 14.886719 C 7.617188 14.898438 7.773438 15.074219 7.761719 15.277344 C 7.75 15.523438 7.746094 15.773438 7.753906 16.019531 C 7.765625 16.355469 7.796875 16.757812 7.828125 17.183594 C 7.871094 17.734375 7.917969 18.304688 7.914062 18.75 C 7.910156 20.636719 6.832031 21.820312 6.117188 22.605469 C 5.816406 22.933594 5.507812 23.269531 5.5 23.445312 C 5.476562 23.902344 5.667969 24.050781 6.144531 24.359375 C 6.648438 24.6875 7.335938 25.136719 7.679688 26.292969 C 7.898438 27.03125 7.96875 27.800781 8.03125 28.480469 C 8.199219 30.296875 8.300781 31.390625 10.46875 31.28125 C 10.785156 31.269531 11.144531 31.230469 11.527344 31.191406 C 12.925781 31.046875 14.503906 30.882812 15.371094 31.683594 C 16.019531 32.277344 16.503906 34.382812 16.796875 36.046875 C 16.820312 36.175781 16.933594 36.269531 17.066406 36.269531 L 27.554688 36.269531 C 27.644531 36.269531 27.722656 36.230469 27.777344 36.160156 C 27.804688 36.121094 27.851562 36.035156 27.820312 35.925781 C 27.464844 34.722656 26.855469 32.417969 26.734375 30.523438 C 26.660156 29.351562 27.003906 27.628906 27.804688 26.59375 C 30.808594 22.742188 31.808594 19.703125 31.257812 16.113281 C 31.214844 15.84375 31.171875 15.585938 31.117188 15.332031 C 31.074219 15.132812 31.207031 14.933594 31.40625 14.894531 C 31.609375 14.851562 31.804688 14.980469 31.847656 15.179688 C 31.902344 15.449219 31.953125 15.71875 31.996094 16.003906 C 32.570312 19.765625 31.492188 23.066406 28.398438 27.046875 C 27.714844 27.921875 27.414062 29.46875 27.476562 30.476562 C 27.59375 32.300781 28.191406 34.546875 28.535156 35.71875 C 28.625 36.023438 28.566406 36.347656 28.371094 36.601562 C 28.179688 36.859375 27.882812 37.007812 27.554688 37.007812 " fill-opacity="1" fill-rule="nonzero"/></g><path fill="#231f20" d="M 9.601562 27.097656 L 7.410156 27.097656 C 7.203125 27.097656 7.035156 26.933594 7.035156 26.730469 C 7.035156 26.523438 7.203125 26.359375 7.410156 26.359375 L 9.601562 26.359375 C 9.808594 26.359375 9.972656 26.523438 9.972656 26.730469 C 9.972656 26.933594 9.808594 27.097656 9.601562 27.097656 " fill-opacity="1" fill-rule="nonzero"/><path fill="#231f20" d="M 9.96875 19.3125 C 9.96875 19.664062 9.679688 19.949219 9.328125 19.949219 C 8.972656 19.949219 8.6875 19.664062 8.6875 19.3125 C 8.6875 18.964844 8.972656 18.679688 9.328125 18.679688 C 9.679688 18.679688 9.96875 18.964844 9.96875 19.3125 " fill-opacity="1" fill-rule="nonzero"/><path fill="#231f20" d="M 20.078125 15.84375 C 18.894531 15.84375 17.726562 15.414062 16.949219 14.601562 C 15.328125 12.902344 15.332031 10.3125 16.957031 8.703125 C 18.300781 7.375 20.488281 7.375 21.832031 8.703125 C 22.933594 9.796875 22.933594 11.578125 21.832031 12.667969 C 20.917969 13.574219 19.433594 13.574219 18.519531 12.667969 C 17.761719 11.917969 17.761719 10.695312 18.519531 9.945312 C 19.15625 9.3125 20.191406 9.316406 20.828125 9.945312 C 21.367188 10.476562 21.367188 11.34375 20.828125 11.875 C 20.683594 12.019531 20.449219 12.019531 20.300781 11.875 C 20.15625 11.730469 20.15625 11.5 20.300781 11.355469 C 20.550781 11.109375 20.550781 10.710938 20.300781 10.464844 C 19.957031 10.121094 19.394531 10.125 19.046875 10.464844 C 18.578125 10.929688 18.578125 11.683594 19.046875 12.148438 C 19.667969 12.761719 20.679688 12.761719 21.304688 12.148438 C 22.117188 11.34375 22.117188 10.03125 21.304688 9.226562 C 20.25 8.183594 18.535156 8.183594 17.484375 9.226562 C 16.144531 10.550781 16.148438 12.6875 17.488281 14.09375 C 18.566406 15.222656 20.558594 15.445312 22.023438 14.601562 C 22.203125 14.5 22.429688 14.5625 22.53125 14.738281 C 22.636719 14.914062 22.574219 15.140625 22.398438 15.242188 C 21.691406 15.648438 20.878906 15.84375 20.078125 15.84375 " fill-opacity="1" fill-rule="nonzero"/><path fill="#231f20" d="M 23.21875 14.382812 C 23.128906 14.382812 23.035156 14.347656 22.964844 14.28125 C 22.8125 14.144531 22.808594 13.910156 22.945312 13.761719 C 23.09375 13.605469 23.210938 13.464844 23.34375 13.234375 C 23.445312 13.058594 23.671875 12.996094 23.851562 13.097656 C 24.03125 13.199219 24.09375 13.425781 23.988281 13.601562 C 23.8125 13.910156 23.644531 14.101562 23.492188 14.265625 C 23.417969 14.34375 23.320312 14.382812 23.21875 14.382812 " fill-opacity="1" fill-rule="nonzero"/><path fill="#231f20" d="M 28.792969 14.773438 C 28.234375 14.773438 27.691406 14.59375 27.238281 14.253906 C 26.785156 13.914062 26.488281 13.417969 26.410156 12.855469 C 26.332031 12.292969 26.476562 11.738281 26.824219 11.285156 C 27.109375 10.90625 27.53125 10.664062 28.003906 10.597656 C 28.476562 10.53125 28.945312 10.65625 29.324219 10.941406 C 29.648438 11.179688 29.855469 11.527344 29.910156 11.921875 C 29.964844 12.316406 29.863281 12.710938 29.621094 13.027344 C 29.414062 13.296875 29.113281 13.46875 28.777344 13.515625 C 28.441406 13.566406 28.101562 13.476562 27.828125 13.273438 C 27.664062 13.148438 27.632812 12.917969 27.757812 12.757812 C 27.882812 12.59375 28.113281 12.5625 28.277344 12.683594 C 28.390625 12.769531 28.53125 12.804688 28.671875 12.785156 C 28.816406 12.765625 28.9375 12.695312 29.027344 12.582031 C 29.148438 12.421875 29.199219 12.222656 29.171875 12.023438 C 29.144531 11.828125 29.039062 11.648438 28.875 11.527344 C 28.65625 11.363281 28.378906 11.292969 28.105469 11.328125 C 27.828125 11.367188 27.585938 11.507812 27.417969 11.730469 C 27.191406 12.023438 27.097656 12.386719 27.148438 12.753906 C 27.199219 13.121094 27.390625 13.445312 27.6875 13.667969 C 28.082031 13.960938 28.566406 14.085938 29.050781 14.015625 C 29.535156 13.949219 29.96875 13.699219 30.265625 13.3125 C 31.050781 12.28125 30.84375 10.824219 29.789062 9.988281 C 29.222656 9.539062 28.402344 9.398438 27.597656 9.605469 C 26.84375 9.804688 26.246094 10.285156 26 10.898438 C 25.921875 11.085938 25.703125 11.179688 25.515625 11.101562 C 25.324219 11.027344 25.230469 10.8125 25.308594 10.621094 C 25.648438 9.785156 26.410156 9.15625 27.40625 8.894531 C 28.441406 8.625 29.507812 8.820312 30.257812 9.414062 C 31.625 10.496094 31.890625 12.40625 30.859375 13.757812 C 30.441406 14.300781 29.835938 14.652344 29.152344 14.746094 C 29.03125 14.765625 28.910156 14.773438 28.792969 14.773438 " fill-opacity="1" fill-rule="nonzero"/><path fill="#231f20" d="M 25.550781 8.390625 C 25.210938 8.390625 24.878906 8.292969 24.585938 8.101562 C 24.195312 7.847656 23.929688 7.457031 23.835938 7.003906 C 23.671875 6.210938 24.1875 5.4375 24.984375 5.273438 C 25.664062 5.132812 26.328125 5.570312 26.46875 6.242188 C 26.527344 6.519531 26.472656 6.808594 26.3125 7.046875 C 26.152344 7.285156 25.910156 7.445312 25.628906 7.503906 C 25.425781 7.546875 25.230469 7.417969 25.1875 7.21875 C 25.144531 7.019531 25.277344 6.824219 25.476562 6.78125 C 25.566406 6.765625 25.640625 6.714844 25.691406 6.640625 C 25.738281 6.566406 25.757812 6.476562 25.738281 6.390625 C 25.679688 6.117188 25.410156 5.941406 25.132812 5.996094 C 24.738281 6.078125 24.484375 6.460938 24.5625 6.851562 C 24.617188 7.113281 24.773438 7.339844 24.996094 7.488281 C 25.222656 7.632812 25.492188 7.683594 25.753906 7.628906 C 26.488281 7.480469 26.960938 6.773438 26.808594 6.046875 C 26.613281 5.101562 25.683594 4.5 24.691406 4.671875 C 24.15625 4.765625 23.671875 5.152344 23.394531 5.707031 C 23.132812 6.226562 23.109375 6.792969 23.332031 7.230469 C 23.425781 7.410156 23.351562 7.632812 23.167969 7.726562 C 22.984375 7.816406 22.761719 7.746094 22.667969 7.5625 C 22.332031 6.910156 22.355469 6.113281 22.726562 5.378906 C 23.109375 4.617188 23.796875 4.082031 24.558594 3.949219 C 25.953125 3.703125 27.261719 4.5625 27.539062 5.898438 C 27.773438 7.023438 27.039062 8.121094 25.90625 8.351562 C 25.785156 8.378906 25.667969 8.390625 25.550781 8.390625 " fill-opacity="1" fill-rule="nonzero"/><path fill="#231f20" d="M 24.570312 12.683594 C 24.492188 12.683594 24.414062 12.664062 24.347656 12.613281 C 24.183594 12.492188 24.144531 12.261719 24.269531 12.097656 C 24.53125 11.742188 24.617188 11.640625 24.632812 11.625 C 24.769531 11.472656 25 11.457031 25.15625 11.589844 C 25.3125 11.726562 25.328125 11.957031 25.191406 12.109375 C 25.191406 12.113281 25.113281 12.203125 24.871094 12.535156 C 24.796875 12.632812 24.683594 12.683594 24.570312 12.683594 " fill-opacity="1" fill-rule="nonzero"/><path fill="#231f20" d="M 15.789062 14.542969 C 15.722656 14.542969 15.65625 14.523438 15.597656 14.488281 C 15.40625 14.371094 15.191406 14.230469 14.9375 13.976562 C 14.792969 13.832031 14.792969 13.597656 14.9375 13.457031 C 15.082031 13.308594 15.316406 13.308594 15.464844 13.453125 C 15.652344 13.640625 15.804688 13.75 15.984375 13.859375 C 16.160156 13.964844 16.214844 14.191406 16.109375 14.363281 C 16.039062 14.480469 15.917969 14.542969 15.789062 14.542969 " fill-opacity="1" fill-rule="nonzero"/><path fill="#231f20" d="M 9.890625 15.066406 C 9.773438 15.066406 9.652344 15.058594 9.53125 15.042969 C 8.847656 14.949219 8.242188 14.597656 7.824219 14.050781 C 6.796875 12.699219 7.058594 10.792969 8.429688 9.707031 C 9.179688 9.113281 10.246094 8.921875 11.277344 9.191406 C 12.273438 9.449219 13.039062 10.078125 13.378906 10.917969 C 13.453125 11.105469 13.363281 11.324219 13.171875 11.398438 C 12.980469 11.472656 12.761719 11.382812 12.6875 11.191406 C 12.441406 10.582031 11.839844 10.101562 11.089844 9.902344 C 10.28125 9.691406 9.460938 9.835938 8.894531 10.285156 C 7.84375 11.117188 7.632812 12.578125 8.421875 13.609375 C 8.714844 13.996094 9.148438 14.246094 9.632812 14.3125 C 10.121094 14.378906 10.605469 14.253906 10.996094 13.960938 C 11.292969 13.738281 11.484375 13.414062 11.539062 13.046875 C 11.589844 12.683594 11.492188 12.320312 11.269531 12.023438 C 11.097656 11.804688 10.855469 11.664062 10.582031 11.625 C 10.304688 11.585938 10.03125 11.65625 9.808594 11.824219 C 9.648438 11.945312 9.539062 12.121094 9.515625 12.320312 C 9.484375 12.519531 9.539062 12.714844 9.660156 12.875 C 9.746094 12.988281 9.871094 13.0625 10.011719 13.082031 C 10.152344 13.101562 10.292969 13.066406 10.40625 12.980469 C 10.570312 12.855469 10.804688 12.890625 10.929688 13.050781 C 11.050781 13.214844 11.019531 13.445312 10.855469 13.566406 C 10.582031 13.773438 10.246094 13.859375 9.910156 13.8125 C 9.570312 13.765625 9.273438 13.589844 9.066406 13.320312 C 8.824219 13.003906 8.71875 12.613281 8.777344 12.21875 C 8.832031 11.824219 9.039062 11.476562 9.359375 11.234375 C 9.738281 10.949219 10.207031 10.828125 10.683594 10.894531 C 11.15625 10.960938 11.574219 11.203125 11.863281 11.578125 C 12.207031 12.03125 12.351562 12.589844 12.277344 13.148438 C 12.195312 13.710938 11.902344 14.207031 11.445312 14.550781 C 10.992188 14.890625 10.449219 15.066406 9.890625 15.066406 " fill-opacity="1" fill-rule="nonzero"/><path fill="#231f20" d="M 14.246094 13.117188 C 14.152344 13.117188 14.0625 13.085938 13.988281 13.019531 C 13.679688 12.734375 13.523438 12.449219 13.507812 12.417969 C 13.410156 12.238281 13.476562 12.015625 13.660156 11.917969 C 13.839844 11.824219 14.066406 11.890625 14.164062 12.070312 C 14.164062 12.070312 14.277344 12.277344 14.5 12.480469 C 14.648438 12.621094 14.65625 12.855469 14.515625 13.003906 C 14.441406 13.078125 14.34375 13.117188 14.246094 13.117188 " fill-opacity="1" fill-rule="nonzero"/><path fill="#231f20" d="M 23.363281 9.703125 C 23.347656 9.703125 23.332031 9.703125 23.316406 9.703125 C 23.113281 9.675781 22.96875 9.492188 22.992188 9.289062 C 22.992188 9.289062 23.007812 9.09375 22.933594 8.6875 C 22.898438 8.488281 23.03125 8.296875 23.234375 8.261719 C 23.441406 8.222656 23.632812 8.355469 23.667969 8.554688 C 23.761719 9.074219 23.738281 9.332031 23.734375 9.378906 C 23.710938 9.566406 23.550781 9.703125 23.363281 9.703125 " fill-opacity="1" fill-rule="nonzero"/><path fill="#231f20" d="M 13.136719 8.683594 C 13.019531 8.683594 12.898438 8.671875 12.78125 8.648438 C 11.644531 8.417969 10.914062 7.316406 11.144531 6.191406 C 11.425781 4.855469 12.734375 3.996094 14.125 4.242188 C 14.890625 4.375 15.574219 4.910156 15.960938 5.675781 C 16.332031 6.410156 16.351562 7.203125 16.015625 7.859375 C 15.925781 8.039062 15.699219 8.109375 15.515625 8.019531 C 15.332031 7.929688 15.257812 7.707031 15.351562 7.523438 C 15.574219 7.089844 15.554688 6.519531 15.292969 6.003906 C 15.011719 5.449219 14.527344 5.0625 13.996094 4.96875 C 13 4.792969 12.070312 5.398438 11.875 6.339844 C 11.726562 7.066406 12.199219 7.777344 12.929688 7.925781 C 13.191406 7.980469 13.464844 7.929688 13.6875 7.78125 C 13.914062 7.636719 14.066406 7.410156 14.121094 7.148438 C 14.203125 6.757812 13.949219 6.371094 13.550781 6.292969 C 13.277344 6.238281 13.003906 6.410156 12.945312 6.6875 C 12.929688 6.773438 12.945312 6.863281 12.996094 6.933594 C 13.042969 7.007812 13.121094 7.058594 13.207031 7.078125 C 13.410156 7.117188 13.539062 7.3125 13.496094 7.511719 C 13.453125 7.710938 13.257812 7.839844 13.058594 7.800781 C 12.773438 7.742188 12.53125 7.578125 12.375 7.339844 C 12.214844 7.101562 12.160156 6.816406 12.21875 6.539062 C 12.355469 5.867188 13.023438 5.433594 13.703125 5.570312 C 14.5 5.730469 15.015625 6.507812 14.851562 7.296875 C 14.757812 7.75 14.488281 8.140625 14.097656 8.398438 C 13.808594 8.585938 13.476562 8.683594 13.136719 8.683594 " fill-opacity="1" fill-rule="nonzero"/><path fill="#231f20" d="M 15.128906 9.808594 C 14.925781 9.808594 14.761719 9.648438 14.757812 9.445312 C 14.757812 9.410156 14.757812 9.105469 14.914062 8.589844 C 14.972656 8.394531 15.179688 8.285156 15.378906 8.34375 C 15.574219 8.402344 15.6875 8.609375 15.628906 8.804688 C 15.507812 9.207031 15.503906 9.4375 15.503906 9.441406 C 15.5 9.640625 15.335938 9.808594 15.128906 9.808594 " fill-opacity="1" fill-rule="nonzero"/><path fill="#231f20" d="M 18.703125 5.949219 C 18.566406 5.949219 18.433594 5.875 18.367188 5.742188 C 18.253906 5.511719 18.03125 5.167969 17.609375 4.832031 C 16.976562 4.335938 16.59375 3.558594 16.582031 2.753906 C 16.574219 2.015625 16.863281 1.355469 17.40625 0.902344 C 18.488281 -0.00390625 20.054688 0.0859375 20.972656 1.105469 C 21.347656 1.519531 21.535156 2.054688 21.503906 2.605469 C 21.472656 3.160156 21.226562 3.671875 20.808594 4.039062 C 20.460938 4.351562 20.011719 4.503906 19.542969 4.480469 C 19.074219 4.453125 18.644531 4.25 18.332031 3.90625 C 18.070312 3.613281 17.9375 3.238281 17.957031 2.847656 C 17.980469 2.457031 18.15625 2.097656 18.449219 1.839844 C 18.699219 1.617188 19.023438 1.503906 19.355469 1.523438 C 19.691406 1.542969 20 1.6875 20.222656 1.9375 C 20.621094 2.375 20.582031 3.054688 20.136719 3.445312 C 19.984375 3.582031 19.75 3.570312 19.613281 3.417969 C 19.476562 3.265625 19.488281 3.03125 19.640625 2.894531 C 19.707031 2.835938 19.746094 2.757812 19.753906 2.667969 C 19.757812 2.578125 19.726562 2.496094 19.667969 2.429688 C 19.578125 2.328125 19.449219 2.269531 19.316406 2.261719 C 19.175781 2.253906 19.046875 2.296875 18.945312 2.390625 C 18.796875 2.519531 18.714844 2.695312 18.703125 2.890625 C 18.691406 3.082031 18.757812 3.269531 18.886719 3.414062 C 19.066406 3.613281 19.316406 3.730469 19.582031 3.746094 C 19.855469 3.757812 20.113281 3.667969 20.3125 3.492188 C 20.582031 3.253906 20.742188 2.921875 20.761719 2.566406 C 20.78125 2.207031 20.660156 1.863281 20.417969 1.597656 C 19.769531 0.878906 18.65625 0.820312 17.886719 1.464844 C 17.519531 1.773438 17.320312 2.230469 17.328125 2.742188 C 17.335938 3.328125 17.613281 3.894531 18.074219 4.253906 C 18.605469 4.675781 18.894531 5.121094 19.039062 5.421875 C 19.128906 5.605469 19.050781 5.824219 18.863281 5.914062 C 18.8125 5.9375 18.757812 5.949219 18.703125 5.949219 " fill-opacity="1" fill-rule="nonzero"/><path fill="#231f20" d="M 19.3125 7.414062 C 19.140625 7.414062 18.988281 7.300781 18.949219 7.125 C 18.949219 7.125 18.910156 6.957031 18.792969 6.683594 C 18.710938 6.496094 18.796875 6.28125 18.988281 6.199219 C 19.179688 6.117188 19.394531 6.207031 19.476562 6.394531 C 19.621094 6.730469 19.671875 6.945312 19.675781 6.96875 C 19.722656 7.167969 19.59375 7.363281 19.394531 7.40625 C 19.367188 7.414062 19.339844 7.414062 19.3125 7.414062 " fill-opacity="1" fill-rule="nonzero"/><path fill="#231f20" d="M 15.234375 11.644531 C 15.097656 11.644531 14.96875 11.570312 14.902344 11.441406 C 14.875 11.394531 14.65625 10.949219 14.652344 10.515625 C 14.652344 10.3125 14.816406 10.144531 15.023438 10.144531 C 15.027344 10.144531 15.027344 10.144531 15.027344 10.144531 C 15.230469 10.144531 15.398438 10.308594 15.398438 10.511719 C 15.398438 10.734375 15.523438 11.023438 15.566406 11.109375 C 15.660156 11.292969 15.585938 11.515625 15.402344 11.605469 C 15.347656 11.632812 15.289062 11.644531 15.234375 11.644531 " fill-opacity="1" fill-rule="nonzero"/><path fill="#231f20" d="M 23.089844 11.527344 C 23.039062 11.527344 22.984375 11.519531 22.933594 11.496094 C 22.746094 11.414062 22.664062 11.195312 22.75 11.007812 C 22.75 11.007812 22.875 10.730469 22.894531 10.429688 C 22.90625 10.226562 23.078125 10.074219 23.289062 10.085938 C 23.496094 10.097656 23.648438 10.273438 23.636719 10.476562 C 23.609375 10.90625 23.445312 11.273438 23.429688 11.3125 C 23.367188 11.449219 23.230469 11.527344 23.089844 11.527344 " fill-opacity="1" fill-rule="nonzero"/></svg>