<?xml version="1.0" encoding="UTF-8"?>
<!DOCTYPE svg PUBLIC "-//W3C//DTD SVG 1.1//EN" "http://www.w3.org/Graphics/SVG/1.1/DTD/svg11.dtd">
<svg xmlns="http://www.w3.org/2000/svg" version="1.1" width="700px" height="700px" style="shape-rendering:geometricPrecision; text-rendering:geometricPrecision; image-rendering:optimizeQuality; fill-rule:evenodd; clip-rule:evenodd" xmlns:xlink="http://www.w3.org/1999/xlink">
<g><path style="opacity:0.899" fill="#000000" d="M 350.5,7.5 C 371.282,4.4734 386.449,12.1401 396,30.5C 400.434,44.6656 397.601,57.1656 387.5,68C 375.952,75.836 363.952,76.5027 351.5,70C 340.793,60.559 338.627,49.3924 345,36.5C 355.642,24.2393 366.975,23.5726 379,34.5C 381.589,38.8518 382.589,43.5185 382,48.5C 381.192,51.733 380.192,54.733 379,57.5C 388.356,45.6393 387.189,34.806 375.5,25C 360.978,16.8363 348.145,19.003 337,31.5C 330.584,43.1888 331.251,54.5221 339,65.5C 347.475,71.6381 354.141,79.3048 359,88.5C 360.925,94.016 359.091,97.3493 353.5,98.5C 351.303,98.1519 349.47,97.1519 348,95.5C 344.094,88.2594 338.761,82.2594 332,77.5C 317.075,59.7367 315.741,41.07 328,21.5C 334.415,14.8851 341.915,10.2184 350.5,7.5 Z M 375.5,59.5 C 369.345,63.3225 363.345,62.8225 357.5,58C 353.458,53.397 352.958,48.5637 356,43.5C 361.48,37.8303 365.98,38.497 369.5,45.5C 368.57,47.6061 367.404,49.6061 366,51.5C 365.552,58.2087 368.718,60.8753 375.5,59.5 Z"/></g>
<g><path style="opacity:0.901" fill="#000000" d="M 447.5,64.5 C 469.073,63.3588 483.906,72.6921 492,92.5C 497.024,113.622 489.524,128.122 469.5,136C 452.162,139.252 440.329,132.752 434,116.5C 432.21,93.322 442.71,83.822 465.5,88C 475.991,94.8074 478.825,103.974 474,115.5C 469.687,121.258 464.187,123.425 457.5,122C 452.881,115.539 454.548,111.206 462.5,109C 464.313,103.469 462.313,99.9692 456.5,98.5C 445.491,102.881 443.325,109.881 450,119.5C 463.478,127.452 473.478,124.118 480,109.5C 481.319,90.4876 472.486,79.8209 453.5,77.5C 433.654,80.1784 424.154,91.5118 425,111.5C 425.841,114.51 426.674,117.51 427.5,120.5C 426.422,126.095 423.088,127.928 417.5,126C 415.062,123.705 413.562,120.872 413,117.5C 409.458,89.8936 420.958,72.227 447.5,64.5 Z"/></g>
<g><path style="opacity:0.899" fill="#000000" d="M 266.5,69.5 C 295.766,68.4337 312.099,82.4337 315.5,111.5C 315.689,118.765 313.689,125.265 309.5,131C 305.219,132.458 302.053,131.292 300,127.5C 305.818,111.606 302.318,98.1055 289.5,87C 276.205,79.8665 264.038,81.3665 253,91.5C 243.91,103.154 244.41,114.321 254.5,125C 267.806,132.18 276.806,128.68 281.5,114.5C 279.917,107.403 275.584,103.903 268.5,104C 264.747,105.674 263.247,108.507 264,112.5C 266.667,114.5 269.333,116.5 272,118.5C 273.48,124.182 271.313,127.182 265.5,127.5C 254.275,125.082 249.442,118.082 251,106.5C 257.934,90.6359 269.101,86.8026 284.5,95C 292.729,102.023 295.563,110.856 293,121.5C 287.258,137.126 276.092,143.626 259.5,141C 237.214,132.928 229.38,117.428 236,94.5C 242.191,81.1276 252.357,72.7942 266.5,69.5 Z"/></g>
<g><path style="opacity:0.851" fill="#000000" d="M 358.5,100.5 C 361.505,100.253 364.005,101.253 366,103.5C 367.37,107.275 368.536,111.109 369.5,115C 368.893,120.608 365.893,122.608 360.5,121C 358.667,120.5 357.5,119.333 357,117.5C 355.833,114 354.667,110.5 353.5,107C 354.283,104.062 355.95,101.896 358.5,100.5 Z"/></g>
<g><path style="opacity:0.9" fill="#000000" d="M 354.5,125.5 C 380.947,122.471 400.447,132.471 413,155.5C 415.086,162.35 416.42,169.35 417,176.5C 417.988,173.576 418.654,170.576 419,167.5C 421.589,162.413 425.256,161.413 430,164.5C 432.139,172.132 430.973,179.299 426.5,186C 418.809,188.307 415.309,185.474 416,177.5C 414.122,193.78 405.955,205.614 391.5,213C 372.469,219.211 356.969,214.377 345,198.5C 337.784,182.141 340.95,168.307 354.5,157C 364.7,152.11 374.7,152.444 384.5,158C 394.245,167.051 396.078,177.551 390,189.5C 385.831,195.596 381.498,195.929 377,190.5C 376.333,188.5 376.333,186.5 377,184.5C 382.621,179.456 382.788,174.289 377.5,169C 368.618,163.846 361.451,165.679 356,174.5C 351.937,188.202 356.77,197.369 370.5,202C 384.783,204.431 394.95,198.931 401,185.5C 406.836,163.34 399.003,148.174 377.5,140C 351.599,134.535 333.432,144.035 323,168.5C 313.881,199.415 323.381,222.581 351.5,238C 371.326,245.097 390.493,243.597 409,233.5C 414.539,235.462 416.206,239.129 414,244.5C 386.331,259.879 359.164,259.046 332.5,242C 307.119,219.643 300.286,192.476 312,160.5C 320.544,141.835 334.711,130.169 354.5,125.5 Z"/></g>
<g><path style="opacity:0.867" fill="#000000" d="M 423.5,133.5 C 427.683,132.846 430.516,134.512 432,138.5C 433.218,143.455 433.551,148.455 433,153.5C 430.947,157.292 427.781,158.458 423.5,157C 422.333,156.5 421.5,155.667 421,154.5C 420.599,149.989 420.099,145.489 419.5,141C 419.43,137.634 420.763,135.134 423.5,133.5 Z"/></g>
<g><path style="opacity:0.871" fill="#000000" d="M 295.5,135.5 C 298.187,135.336 300.854,135.503 303.5,136C 305.007,137.473 305.674,139.307 305.5,141.5C 304.732,146.509 303.898,151.509 303,156.5C 299.974,159.864 296.474,160.364 292.5,158C 291.642,156.43 290.975,154.763 290.5,153C 291.016,146.76 292.683,140.926 295.5,135.5 Z"/></g>
<g><path style="opacity:0.902" fill="#000000" d="M 494.5,142.5 C 522.997,139.486 542.497,151.153 553,177.5C 558.347,198.787 552.847,216.62 536.5,231C 521.071,240.589 505.405,240.922 489.5,232C 472.832,218.167 469.665,201.667 480,182.5C 491.823,169.498 505.323,167.332 520.5,176C 533.409,188.666 533.742,201.666 521.5,215C 512.431,220.067 503.765,219.567 495.5,213.5C 492.961,207.76 494.628,204.093 500.5,202.5C 511.688,208.473 517.188,205.139 517,192.5C 511.146,182.845 503.313,181.012 493.5,187C 483.745,198.63 484.412,209.63 495.5,220C 512.911,229.606 527.077,226.106 538,209.5C 545.633,191.799 542.466,176.299 528.5,163C 508.302,150.438 489.802,152.605 473,169.5C 471.04,172.585 469.207,175.752 467.5,179C 457.843,181.672 454.676,178.172 458,168.5C 466.182,154.139 478.348,145.473 494.5,142.5 Z"/></g>
<g><path style="opacity:0.899" fill="#000000" d="M 216.5,146.5 C 240.54,145.097 258.373,154.764 270,175.5C 271.719,182.78 268.885,185.947 261.5,185C 249.266,162.586 230.933,155.253 206.5,163C 184.717,176.357 179.55,194.523 191,217.5C 202.406,231.394 215.906,233.894 231.5,225C 243.049,213.96 243.382,202.627 232.5,191C 222.806,186.132 215.306,188.299 210,197.5C 209.326,208.84 214.159,212.34 224.5,208C 231.547,207.705 234.047,210.872 232,217.5C 223.274,224.816 214.108,225.316 204.5,219C 195.806,209.581 194.306,199.081 200,187.5C 209.449,175.845 221.282,172.678 235.5,178C 247.189,184.187 253.189,194.02 253.5,207.5C 250.669,230.026 237.836,242.026 215,243.5C 187.404,240.067 173.238,224.401 172.5,196.5C 174.223,168.359 188.89,151.692 216.5,146.5 Z"/></g>
<g><path style="opacity:0.857" fill="#000000" d="M 293.5,163.5 C 296.505,163.253 299.005,164.253 301,166.5C 302.194,171.916 303.694,177.249 305.5,182.5C 304.349,188.091 301.016,189.925 295.5,188C 290.471,181.72 288.638,174.553 290,166.5C 291.145,165.364 292.312,164.364 293.5,163.5 Z"/></g>
<g><path style="opacity:0.847" fill="#000000" d="M 448.5,185.5 C 453.699,184.383 456.699,186.383 457.5,191.5C 455.831,198.175 451.831,202.842 445.5,205.5C 441.408,204.991 439.408,202.658 439.5,198.5C 441.341,193.332 444.341,188.999 448.5,185.5 Z"/></g>
<g><path style="opacity:0.859" fill="#000000" d="M 273.5,191.5 C 275.857,191.337 278.19,191.503 280.5,192C 283.333,195.5 286.167,199 289,202.5C 290.875,209.282 288.375,212.448 281.5,212C 275.707,208.716 272.04,203.883 270.5,197.5C 270.467,194.898 271.467,192.898 273.5,191.5 Z"/></g>
<g><path style="opacity:0.858" fill="#000000" d="M 430.5,209.5 C 437.104,210.334 439.271,214.001 437,220.5C 434.766,224.458 431.933,227.958 428.5,231C 420.685,233.522 417.518,230.689 419,222.5C 421.723,219.443 424.056,216.11 426,212.5C 427.409,211.219 428.909,210.219 430.5,209.5 Z"/></g>
<g><path style="opacity:0.867" fill="#000000" d="M 295.5,214.5 C 297.989,214.298 300.323,214.798 302.5,216C 306,218.833 309.5,221.667 313,224.5C 315.567,232.272 312.734,235.439 304.5,234C 299.025,231.025 294.692,226.858 291.5,221.5C 292.094,218.692 293.427,216.359 295.5,214.5 Z"/></g>
<g><path style="opacity:0.904" fill="#000000" d="M 172.5,239.5 C 175.685,239.02 178.519,239.686 181,241.5C 182.024,260.842 183.191,280.175 184.5,299.5C 184.211,321.402 176.711,340.402 162,356.5C 157.632,360.533 153.632,364.866 150,369.5C 144.632,376.787 145.799,382.953 153.5,388C 167.853,394.882 176.853,406.049 180.5,421.5C 191.505,421.333 202.505,421.5 213.5,422C 216.349,424.559 217.183,427.726 216,431.5C 215.097,432.701 213.931,433.535 212.5,434C 202.816,434.168 193.149,434.668 183.5,435.5C 185.482,449.459 187.315,463.459 189,477.5C 191.509,489.342 198.676,496.509 210.5,499C 233.811,497.851 257.144,497.184 280.5,497C 295.057,498.356 304.89,505.856 310,519.5C 316.314,538.751 321.48,558.251 325.5,578C 381.833,578.667 438.167,578.667 494.5,578C 495.804,577.196 496.471,576.029 496.5,574.5C 488.784,548.968 483.284,522.968 480,496.5C 477.151,472.744 481.485,450.41 493,429.5C 515.694,402.414 533.027,372.081 545,338.5C 551.609,316.96 553.942,294.96 552,272.5C 550.43,262.187 549.43,251.854 549,241.5C 552.667,238.833 556.333,238.833 560,241.5C 569.101,279.878 566.768,317.544 553,354.5C 540.72,384.417 524.386,411.75 504,436.5C 492.584,458.323 489.251,481.323 494,505.5C 497.892,528.961 503.059,552.127 509.5,575C 509.113,583.131 505.113,588.464 497.5,591C 439.5,591.667 381.5,591.667 323.5,591C 318.09,589.257 314.256,585.757 312,580.5C 308.822,559.12 303.156,538.453 295,518.5C 290.952,513.724 285.785,510.891 279.5,510C 269.833,509.333 260.167,509.333 250.5,510C 235.19,512.533 219.857,512.866 204.5,511C 187.474,506.302 177.974,495.136 176,477.5C 174.392,465.866 173.058,454.2 172,442.5C 171.58,426.542 165.413,413.375 153.5,403C 143.883,399.052 137.383,392.219 134,382.5C 132.99,376.936 133.657,371.602 136,366.5C 144.239,357.018 152.239,347.351 160,337.5C 167.976,325.737 171.81,312.737 171.5,298.5C 169.872,279.86 169.372,261.193 170,242.5C 170.698,241.309 171.531,240.309 172.5,239.5 Z"/></g>
<g><path style="opacity:0.895" fill="#000000" d="M 202.5,299.5 C 215.15,299.792 218.983,305.792 214,317.5C 206.468,322.431 200.468,321.098 196,313.5C 194.709,307.087 196.876,302.42 202.5,299.5 Z"/></g>
</svg>
