<svg xmlns="http://www.w3.org/2000/svg" xmlns:xlink="http://www.w3.org/1999/xlink" width="60" zoomAndPan="magnify" viewBox="0 0 45 44.999999" height="60" preserveAspectRatio="xMidYMid meet" version="1.0"><defs><filter x="0%" y="0%" width="100%" height="100%" id="fbb03e8ba6"><feColorMatrix values="0 0 0 0 1 0 0 0 0 1 0 0 0 0 1 0 0 0 1 0" color-interpolation-filters="sRGB"/></filter><clipPath id="d7cc2125a1"><path d="M 3.179688 6.9375 L 16 6.9375 L 16 13 L 3.179688 13 Z M 3.179688 6.9375 " clip-rule="nonzero"/></clipPath><mask id="ac31ebe598"><g filter="url(#fbb03e8ba6)"><rect x="-4.5" width="54" fill="#000000" y="-4.5" height="53.999999" fill-opacity="0.15"/></g></mask><clipPath id="ecd0f076d5"><path d="M 0.179688 0.9375 L 12 0.9375 L 12 6.71875 L 0.179688 6.71875 Z M 0.179688 0.9375 " clip-rule="nonzero"/></clipPath><clipPath id="6ae9b92160"><path d="M 0.179688 0.9375 L 12.121094 0.9375 L 12.121094 6.71875 L 0.179688 6.71875 Z M 0.179688 0.9375 " clip-rule="nonzero"/></clipPath><clipPath id="d4425d32fc"><rect x="0" width="13" y="0" height="7"/></clipPath></defs><rect x="-4.5" width="54" fill="#ffffff" y="-4.5" height="53.999999" fill-opacity="1"/><rect x="-4.5" width="54" fill="#ffffff" y="-4.5" height="53.999999" fill-opacity="1"/><g clip-path="url(#d7cc2125a1)"><g mask="url(#ac31ebe598)"><g transform="matrix(1, 0, 0, 1, 3, 6)"><g clip-path="url(#d4425d32fc)"><g clip-path="url(#ecd0f076d5)"><path fill="#ffffff" d="M 6.003906 -34.066406 C 6.003906 -34.066406 11.738281 -26.726562 11.738281 -26.726562 C 11.738281 -26.726562 -30.71875 6.445312 -30.71875 6.445312 C -30.71875 6.445312 -36.449219 -0.894531 -36.449219 -0.894531 C -36.449219 -0.894531 6.003906 -34.066406 6.003906 -34.066406 Z M 6.003906 -34.066406 " fill-opacity="1" fill-rule="nonzero"/></g><g clip-path="url(#6ae9b92160)"><path stroke-linecap="butt" transform="matrix(0.0117282, -0.00916309, 0.00916309, 0.0117282, -12.355542, -13.810773)" fill="none" stroke-linejoin="miter" d="M 1809.947729 -312.997995 C 1809.947729 -312.997995 1809.940393 312.82348 1809.940393 312.82348 C 1809.940393 312.82348 -1810.165517 312.866459 -1810.165517 312.866459 C -1810.165517 312.866459 -1809.951361 -312.793431 -1809.951361 -312.793431 C -1809.951361 -312.793431 1809.947729 -312.997995 1809.947729 -312.997995 Z M 1809.947729 -312.997995 " stroke="#545454" stroke-width="5" stroke-opacity="1" stroke-miterlimit="4"/></g></g></g></g></g><path fill="#545454" d="M 28.503906 37.535156 C 28.503906 37.535156 16.160156 37.535156 16.160156 37.535156 C 16.160156 37.347656 16.199219 37.160156 16.269531 36.984375 C 16.324219 36.847656 16.402344 36.71875 16.496094 36.597656 C 16.902344 36.097656 17.226562 35.566406 17.449219 34.996094 C 17.828125 34.046875 17.933594 33 17.71875 31.832031 C 17.71875 31.832031 26.832031 31.832031 26.832031 31.832031 C 26.597656 32.925781 26.730469 33.980469 27.179688 34.996094 C 27.421875 35.539062 27.757812 36.074219 28.179688 36.597656 C 28.273438 36.71875 28.347656 36.847656 28.402344 36.984375 C 28.410156 37.003906 28.414062 37.023438 28.421875 37.039062 C 28.476562 37.199219 28.503906 37.367188 28.503906 37.535156 Z M 28.503906 37.535156 " fill-opacity="1" fill-rule="nonzero"/><path fill="#000000" d="M 28.378906 36.960938 C 28.378906 36.960938 16.246094 36.960938 16.246094 36.960938 C 16.300781 36.820312 16.378906 36.691406 16.472656 36.574219 C 16.878906 36.070312 17.203125 35.539062 17.429688 34.96875 C 17.429688 34.96875 27.15625 34.96875 27.15625 34.96875 C 27.398438 35.515625 27.734375 36.046875 28.15625 36.574219 C 28.25 36.691406 28.324219 36.820312 28.378906 36.960938 Z M 28.378906 36.960938 " fill-opacity="1" fill-rule="nonzero"/><path fill="#ffffff" d="M 22.339844 6.625 C 22.199219 6.625 22.082031 6.738281 22.082031 6.882812 C 22.082031 7.023438 22.199219 7.140625 22.339844 7.140625 C 22.484375 7.140625 22.597656 7.023438 22.597656 6.882812 C 22.597656 6.738281 22.484375 6.625 22.339844 6.625 Z M 22.339844 6.625 " fill-opacity="1" fill-rule="nonzero"/><path fill="#000000" d="M 40.839844 6.324219 C 40.839844 6.324219 3.839844 6.324219 3.839844 6.324219 C 3.144531 6.324219 2.578125 6.863281 2.578125 7.527344 C 2.578125 7.527344 2.578125 31.25 2.578125 31.25 C 2.578125 31.953125 3.144531 32.523438 3.847656 32.523438 C 3.847656 32.523438 40.832031 32.523438 40.832031 32.523438 C 41.535156 32.523438 42.105469 31.953125 42.105469 31.25 C 42.105469 31.25 42.105469 7.527344 42.105469 7.527344 C 42.105469 6.863281 41.539062 6.324219 40.839844 6.324219 Z M 22.308594 6.625 C 22.476562 6.605469 22.617188 6.746094 22.597656 6.914062 C 22.582031 7.03125 22.488281 7.125 22.375 7.136719 C 22.207031 7.160156 22.066406 7.015625 22.085938 6.847656 C 22.101562 6.734375 22.191406 6.640625 22.308594 6.625 Z M 3.542969 7.472656 C 3.542969 7.472656 41.140625 7.472656 41.140625 7.472656 C 41.140625 7.472656 41.140625 28.625 41.140625 28.625 C 41.140625 28.625 3.542969 28.625 3.542969 28.625 C 3.542969 28.625 3.542969 7.472656 3.542969 7.472656 Z M 3.542969 7.472656 " fill-opacity="1" fill-rule="nonzero"/><path fill="#545454" d="M 22.597656 6.882812 C 22.597656 7.023438 22.484375 7.140625 22.339844 7.140625 C 22.199219 7.140625 22.082031 7.023438 22.082031 6.882812 C 22.082031 6.738281 22.199219 6.625 22.339844 6.625 C 22.484375 6.625 22.597656 6.738281 22.597656 6.882812 Z M 22.597656 6.882812 " fill-opacity="1" fill-rule="nonzero"/></svg>