<svg xmlns="http://www.w3.org/2000/svg" xmlns:xlink="http://www.w3.org/1999/xlink" width="40" zoomAndPan="magnify" viewBox="0 0 30 30.000001" height="40" preserveAspectRatio="xMidYMid meet" version="1.0"><defs><filter x="0%" y="0%" width="100%" height="100%" id="a6ac965ea0"><feColorMatrix values="0 0 0 0 1 0 0 0 0 1 0 0 0 0 1 0 0 0 1 0" color-interpolation-filters="sRGB"/></filter><clipPath id="42f602072f"><path d="M 0.484375 0 L 29.515625 0 L 29.515625 29.03125 L 0.484375 29.03125 Z M 0.484375 0 " clip-rule="nonzero"/></clipPath><clipPath id="db510b75ef"><path d="M 2.535156 4.476562 L 11 4.476562 L 11 9 L 2.535156 9 Z M 2.535156 4.476562 " clip-rule="nonzero"/></clipPath><mask id="922bc5c3ca"><g filter="url(#a6ac965ea0)"><rect x="-3" width="36" fill="#000000" y="-3" height="36.000001" fill-opacity="0.15"/></g></mask><clipPath id="9cf5d535be"><path d="M 0.535156 0.476562 L 8 0.476562 L 8 4.359375 L 0.535156 4.359375 Z M 0.535156 0.476562 " clip-rule="nonzero"/></clipPath><clipPath id="e7a30145f3"><path d="M 0.535156 0.476562 L 8.238281 0.476562 L 8.238281 4.359375 L 0.535156 4.359375 Z M 0.535156 0.476562 " clip-rule="nonzero"/></clipPath><clipPath id="b73661c452"><rect x="0" width="9" y="0" height="5"/></clipPath></defs><g clip-path="url(#42f602072f)"><path fill="#ffffff" d="M 0.484375 0 L 29.515625 0 L 29.515625 29.03125 L 0.484375 29.03125 Z M 0.484375 0 " fill-opacity="1" fill-rule="nonzero"/><path fill="#ffffff" d="M 0.484375 0 L 29.515625 0 L 29.515625 29.03125 L 0.484375 29.03125 Z M 0.484375 0 " fill-opacity="1" fill-rule="nonzero"/></g><g clip-path="url(#db510b75ef)"><g mask="url(#922bc5c3ca)"><g transform="matrix(1, 0, 0, 1, 2, 4)"><g clip-path="url(#b73661c452)"><g clip-path="url(#9cf5d535be)"><path fill="#ffffff" d="M 4.292969 -22.105469 C 4.292969 -22.105469 7.992188 -17.371094 7.992188 -17.371094 C 7.992188 -17.371094 -19.398438 4.027344 -19.398438 4.027344 C -19.398438 4.027344 -23.097656 -0.707031 -23.097656 -0.707031 C -23.097656 -0.707031 4.292969 -22.105469 4.292969 -22.105469 Z M 4.292969 -22.105469 " fill-opacity="1" fill-rule="nonzero"/></g><g clip-path="url(#e7a30145f3)"><path stroke-linecap="butt" transform="matrix(0.0075666, -0.00591167, 0.00591167, 0.0075666, -7.551963, -9.039205)" fill="none" stroke-linejoin="miter" d="M 1809.837153 -312.83504 C 1809.837153 -312.83504 1809.863427 312.879478 1809.863427 312.879478 C 1809.863427 312.879478 -1809.982061 312.759578 -1809.982061 312.759578 C -1809.982061 312.759578 -1810.008334 -312.95494 -1810.008334 -312.95494 C -1810.008334 -312.95494 1809.837153 -312.83504 1809.837153 -312.83504 Z M 1809.837153 -312.83504 " stroke="#545454" stroke-width="5" stroke-opacity="1" stroke-miterlimit="4"/></g></g></g></g></g><path fill="#545454" d="M 18.875 24.21875 C 18.875 24.21875 10.910156 24.21875 10.910156 24.21875 C 10.910156 24.21875 10.910156 24.214844 10.910156 24.214844 C 10.910156 24.09375 10.933594 23.972656 10.980469 23.863281 C 11.015625 23.773438 11.066406 23.6875 11.128906 23.613281 C 11.390625 23.289062 11.597656 22.945312 11.742188 22.578125 C 11.984375 21.964844 12.054688 21.289062 11.914062 20.535156 C 11.914062 20.535156 17.796875 20.535156 17.796875 20.535156 C 17.644531 21.242188 17.726562 21.921875 18.019531 22.578125 C 18.175781 22.929688 18.390625 23.273438 18.664062 23.613281 C 18.722656 23.6875 18.773438 23.773438 18.808594 23.863281 C 18.8125 23.875 18.816406 23.886719 18.820312 23.898438 C 18.855469 24 18.875 24.109375 18.875 24.21875 Z M 18.875 24.21875 " fill-opacity="1" fill-rule="nonzero"/><path fill="#000000" d="M 18.792969 23.84375 C 18.792969 23.84375 10.964844 23.84375 10.964844 23.84375 C 11 23.753906 11.050781 23.671875 11.113281 23.59375 C 11.375 23.273438 11.582031 22.925781 11.726562 22.5625 C 11.726562 22.5625 18.003906 22.5625 18.003906 22.5625 C 18.160156 22.914062 18.378906 23.257812 18.648438 23.59375 C 18.710938 23.671875 18.757812 23.753906 18.792969 23.84375 Z M 18.792969 23.84375 " fill-opacity="1" fill-rule="nonzero"/><path fill="#ffffff" d="M 14.898438 4.273438 C 14.804688 4.273438 14.730469 4.347656 14.730469 4.441406 C 14.730469 4.53125 14.804688 4.605469 14.898438 4.605469 C 14.988281 4.605469 15.0625 4.53125 15.0625 4.441406 C 15.0625 4.347656 14.988281 4.273438 14.898438 4.273438 Z M 14.898438 4.273438 " fill-opacity="1" fill-rule="nonzero"/><path fill="#000000" d="M 26.832031 4.082031 C 26.832031 4.082031 2.960938 4.082031 2.960938 4.082031 C 2.511719 4.082031 2.144531 4.429688 2.144531 4.855469 C 2.144531 4.855469 2.144531 20.160156 2.144531 20.160156 C 2.144531 20.613281 2.511719 20.980469 2.96875 20.980469 C 2.96875 20.980469 26.828125 20.980469 26.828125 20.980469 C 27.28125 20.980469 27.648438 20.613281 27.648438 20.160156 C 27.648438 20.160156 27.648438 4.855469 27.648438 4.855469 C 27.648438 4.429688 27.285156 4.082031 26.832031 4.082031 Z M 14.875 4.273438 C 14.984375 4.261719 15.078125 4.351562 15.0625 4.460938 C 15.054688 4.535156 14.992188 4.597656 14.917969 4.605469 C 14.808594 4.617188 14.71875 4.527344 14.734375 4.417969 C 14.742188 4.34375 14.800781 4.285156 14.875 4.273438 Z M 2.769531 4.820312 C 2.769531 4.820312 27.027344 4.820312 27.027344 4.820312 C 27.027344 4.820312 27.027344 18.46875 27.027344 18.46875 C 27.027344 18.46875 2.769531 18.46875 2.769531 18.46875 C 2.769531 18.46875 2.769531 4.820312 2.769531 4.820312 Z M 2.769531 4.820312 " fill-opacity="1" fill-rule="nonzero"/><path fill="#545454" d="M 15.0625 4.441406 C 15.0625 4.53125 14.988281 4.605469 14.898438 4.605469 C 14.804688 4.605469 14.730469 4.53125 14.730469 4.441406 C 14.730469 4.347656 14.804688 4.273438 14.898438 4.273438 C 14.988281 4.273438 15.0625 4.347656 15.0625 4.441406 Z M 15.0625 4.441406 " fill-opacity="1" fill-rule="nonzero"/></svg>